<?xml version="1.0" standalone="no"?>
<!DOCTYPE svg PUBLIC "-//W3C//DTD SVG 20010904//EN"
 "http://www.w3.org/TR/2001/REC-SVG-20010904/DTD/svg10.dtd">
<svg version="1.0" xmlns="http://www.w3.org/2000/svg"
 width="480.000000pt" height="480.000000pt" viewBox="0 0 480.000000 480.000000"
 preserveAspectRatio="xMidYMid meet">
<metadata>
Created by potrace 1.11, written by Peter Selinger 2001-2013
</metadata>
<g transform="translate(0.000000,480.000000) scale(0.100000,-0.100000)"
fill="#000000" stroke="none">
<path d="M1680 3530 c-190 -35 -338 -164 -399 -347 -40 -118 -22 -304 38 -398
l19 -30 -276 -277 -275 -277 -49 25 c-334 169 -737 -79 -738 -456 -1 -300 285
-547 580 -501 345 53 540 425 384 733 l-26 51 274 273 273 274 51 -26 c146
-72 312 -72 458 0 l51 26 278 -279 279 -278 -20 -39 c-81 -160 -69 -365 32
-517 153 -231 472 -292 706 -135 100 66 183 186 209 299 26 113 4 283 -48 364
l-19 30 276 277 275 277 49 -25 c290 -147 648 20 723 337 41 177 -7 343 -139
474 -82 81 -153 119 -265 142 -186 39 -400 -51 -512 -213 -101 -147 -114 -356
-33 -516 l26 -51 -274 -273 -273 -274 -51 26 c-147 73 -329 71 -467 -4 l-48
-26 -276 276 -276 276 25 59 c39 87 48 129 48 228 -1 268 -203 481 -473 499
-40 3 -92 1 -117 -4z m205 -229 c59 -26 116 -80 145 -138 35 -67 36 -207 3
-269 -30 -56 -113 -129 -170 -148 -103 -35 -211 -13 -293 61 -77 69 -95 110
-95 218 0 75 4 97 23 135 76 145 242 205 387 141z m2531 -5 c61 -28 115 -82
146 -145 18 -35 23 -63 23 -121 0 -122 -56 -213 -168 -272 -60 -33 -194 -33
-254 0 -66 35 -110 79 -140 140 -24 48 -28 69 -27 132 1 89 19 134 76 197 93
100 219 125 344 69z m-3779 -1254 c65 -34 110 -78 140 -140 39 -79 39 -183 1
-257 -77 -148 -245 -210 -388 -143 -249 116 -233 457 27 554 54 20 167 13 220
-14z m2496 12 c57 -19 141 -92 169 -148 14 -27 23 -67 26 -117 4 -66 1 -84
-20 -131 -34 -74 -79 -122 -146 -155 -142 -69 -319 -9 -392 134 -35 67 -36
207 -3 269 29 54 113 129 166 147 56 20 143 21 200 1z"/>
<path d="M3400 2943 c-8 -3 -75 -64 -147 -136 -145 -143 -159 -168 -129 -226
9 -17 30 -38 47 -47 58 -30 83 -16 226 129 76 75 135 143 138 158 18 72 -65
147 -135 122z"/>
<path d="M1409 2143 c-79 -77 -133 -139 -139 -158 -12 -35 -1 -76 27 -107 19
-21 72 -33 105 -23 29 9 254 229 275 269 19 37 10 82 -24 118 -21 22 -36 28
-72 28 -43 0 -47 -2 -172 -127z"/>
</g>
</svg>
